
nColumns=19
nRows=31
DataType=double
version=3
OpenSimVersion=4.4-2022-10-11-798caa840
endheader
time	ground_force_calcn_r_vx	ground_force_calcn_r_vy	ground_force_calcn_r_vz	ground_force_calcn_r_px	ground_force_calcn_r_py	ground_force_calcn_r_pz	ground_force_calcn_r_mx	ground_force_calcn_r_my	ground_force_calcn_r_mz	ground_force_calcn_l_vx	ground_force_calcn_l_vy	ground_force_calcn_l_vz	ground_force_calcn_l_px	ground_force_calcn_l_py	ground_force_calcn_l_pz	ground_force_calcn_l_mx	ground_force_calcn_l_my	ground_force_calcn_l_mz
1.29	-43.8263	60.3787	4.6899	-0.0714235	0	-0.47138	-0.178083	0.245342	0.0190569	0	0	0	0	0	0	0	0	0
1.3	-314.076	517.734	4.50778	-0.0882177	0	-0.454247	-0.484213	0.798195	0.00694969	0	0	0	0	0	0	0	0	0
1.31	-382.803	791.956	-36.1483	-0.095168	0	-0.450303	-0.912818	1.88847	-0.086198	-40.0482	63.2693	6.81531	-0.0304497	0	-0.815048	0.191649	-0.302772	-0.0326143
1.32	-167.779	864.672	-87.3185	-0.135151	0	-0.445289	-0.268378	1.38313	-0.139674	-188.752	330.493	32.7697	-0.0585178	0	-0.825203	0.417897	-0.731712	-0.07255209999999999
1.33	-56.2998	1507.13	-126.237	-0.18853	0	-0.445516	0.160648	-4.30051	0.36021	-200.648	405.045	73.1103	-0.0650525	0	-0.825125	0.932969	-1.88337	-0.339947
1.34	-31.3267	1775.7	-131.293	-0.200331	0	-0.446483	0.171737	-9.7346	0.719763	-96.13930000000001	363.812	57.9827	-0.0853418	0	-0.816408	0.259805	-0.983158	-0.156691
1.35	-254.15	1299.07	-98.70780000000001	-0.17554	0	-0.446167	1.8864	-9.642200000000001	0.732647	-64.8704	544.641	21.7352	-0.128882	0	-0.804393	-0.316329	2.65584	0.105988
1.36	-342.863	904.525	-81.01649999999999	-0.13667	0	-0.445692	2.51745	-6.64143	0.594859	-31.288	776.399	20.376	-0.151437	0	-0.8009230000000001	-0.178418	4.42736	0.116193
1.37	-265.623	754.931	-78.5715	-0.11709	0	-0.446487	1.81255	-5.15147	0.536153	-95.0188	719.24	43.3339	-0.140004	0	-0.801886	-0.551378	4.17363	0.25146
1.38	-214.851	710.886	-68.7796	-0.110904	0	-0.448548	1.37554	-4.5513	0.440347	-188.815	561.319	56.6052	-0.107982	0	-0.803131	-0.711858	2.11624	0.213409
1.39	-217.06	688.014	-54.2431	-0.105875	0	-0.450778	1.31539	-4.1694	0.328716	-198.465	467.376	59.4582	-0.08319360000000001	0	-0.802613	-0.449834	1.05934	0.134766
1.4	-214.287	678.192	-42.7717	-0.103327	0	-0.452318	1.3806	-4.36944	0.275568	-171.892	437.906	57.5806	-0.0742029	0	-0.801732	-0.55693	1.41881	0.186561
1.41	-186.559	675.898	-32.8537	-0.103741	0	-0.453103	1.46346	-5.30205	0.257719	-155.986	435.184	52.2639	-0.0710403	0	-0.80093	-0.911654	2.54342	0.305455
1.42	-154.284	685.462	-27.9136	-0.106016	0	-0.453278	1.40601	-6.24671	0.254381	-153.014	437.681	47.4234	-0.0684511	0	-0.80028	-1.25634	3.59363	0.389375
1.43	-128.925	700.129	-31.354	-0.108566	0	-0.452981	1.18103	-6.41362	0.287222	-151.034	445.864	51.3361	-0.0674932	0	-0.800247	-1.27847	3.77413	0.434548
1.44	-111.465	703.874	-36.6675	-0.109976	0	-0.452434	0.9688560000000001	-6.11809	0.318714	-140.819	461.971	62.8172	-0.0691922	0	-0.800769	-0.9994420000000001	3.27876	0.445835
1.45	-102.704	686.098	-37.2872	-0.109695	0	-0.451838	0.868167	-5.79964	0.315192	-124.229	478.888	70.9987	-0.0723708	0	-0.8013749999999999	-0.780336	3.00809	0.445972
1.46	-98.6225	647.134	-34.9408	-0.108165	0	-0.451272	0.80041	-5.25207	0.283576	-105.144	488.749	68.9988	-0.0758422	0	-0.801347	-0.749167	3.48242	0.491628
1.47	-96.116	597.052	-34.0916	-0.106248	0	-0.450641	0.673134	-4.18136	0.238755	-89.45010000000001	489.517	60.8757	-0.0784253	0	-0.8006720000000001	-0.789526	4.3207	0.537317
1.48	-94.1322	548.139	-35.3837	-0.104628	0	-0.449784	0.495165	-2.88338	0.186129	-80.00149999999999	480.599	53.7274	-0.0793686	0	-0.800198	-0.7946029999999999	4.77347	0.53364
1.49	-92.5762	508.326	-36.7379	-0.103327	0	-0.449081	0.33705	-1.8507	0.133755	-74.6669	460.564	51.1832	-0.0789667	0	-0.8003169999999999	-0.730577	4.50638	0.5008010000000001
1.5	-91.29600000000001	482.674	-35.8124	-0.102647	0	-0.448893	0.256162	-1.35431	0.100484	-71.08540000000001	433.04	51.9147	-0.07769620000000001	0	-0.800805	-0.607813	3.7027	0.443895
1.51	-87.00190000000001	473.032	-32.8691	-0.103312	0	-0.448902	0.253956	-1.38077	0.095944	-67.1139	406.449	52.1042	-0.0767046	0	-0.801671	-0.491244	2.97502	0.381379
1.52	-78.90349999999999	475.478	-28.6371	-0.105124	0	-0.449055	0.301884	-1.81917	0.109565	-62.3968	387.003	51.351	-0.0769601	0	-0.802751	-0.414482	2.57073	0.341108
1.53	-68.83159999999999	484.768	-24.62	-0.107501	0	-0.4494	0.354972	-2.5	0.126968	-56.3106	375.89	51.4042	-0.078697	0	-0.8039269999999999	-0.349073	2.33017	0.318658
1.54	-59.0078	494.992	-21.6691	-0.109575	0	-0.449955	0.391925	-3.2877	0.143924	-48.2774	370.963	52.3821	-0.0815568	0	-0.804959	-0.280549	2.15574	0.304402
1.55	-51.7374	498.831	-18.5224	-0.110655	0	-0.450595	0.415211	-4.0033	0.148649	-39.5307	367.909	53.3766	-0.0843825	0	-0.805393	-0.221555	2.06199	0.299156
1.56	-47.6906	491.554	-16.1152	-0.11066	0	-0.451183	0.427463	-4.40592	0.144445	-32.27	362.34	52.0446	-0.08653909999999999	0	-0.805057	-0.196909	2.21097	0.317572
1.57	-46.5726	475.477	-17.0952	-0.109957	0	-0.451268	0.417495	-4.26236	0.153248	-27.4325	352.501	47.7652	-0.0875179	0	-0.803966	-0.201588	2.59035	0.351002
1.58	-47.5023	457.53	-21.5388	-0.109105	0	-0.450592	0.374834	-3.6103	0.16996	-24.9651	339.049	42.0814	-0.087406	0	-0.802528	-0.222018	3.0152	0.374235
1.59	-48.8963	441.788	-26.9442	-0.108229	0	-0.449701	0.312609	-2.82449	0.172263	-24.4944	322.335	36.6478	-0.0862479	0	-0.801248	-0.251807	3.31366	0.376745
